<svg id="OBJECTS" xmlns="http://www.w3.org/2000/svg" xmlns:xlink="http://www.w3.org/1999/xlink"
    viewBox="0 0 754.3 503.38">
    <defs>
        <style>
            .cls-1{fill:none;}.cls-2{clip-path:url(#clip-path);}.cls-3{fill:#fff;}.cls-4{fill:#d1a2cc;}.cls-5{fill:#9a7adb;}.cls-6{fill:#f7b844;}.cls-7{fill:#fff0f3;}.cls-8{fill:#9bb9f6;}.cls-9{fill:#79a2f6;}.cls-10{fill:url(#linear-gradient);}.cls-11{fill:#e1648a;}.cls-12{fill:#eb7c9d;}.cls-13{fill:#d6436f;}.cls-14{fill:#ae7cb5;}.cls-15{fill:#81c7b4;}.cls-16{fill:#6dbaa6;}.cls-17{fill:#eae3d9;}.cls-18{fill:#c9beaf;}.cls-19{fill:#f27ea1;}.cls-20{fill:#f2a5bc;}.cls-21{fill:#6486cc;}.cls-22{fill:#5c80c9;}.cls-23{fill:#b5cdff;}.cls-24{fill:#e3d8c8;}.cls-25{fill:#fcfcfc;}.cls-26{fill:#e1517d;}.cls-27{fill:#34186e;}.cls-28{fill:#4f6fb0;}.cls-29{fill:#9bdbca;}</style>
        <clipPath id="clip-path" transform="translate(4 2.7)">
            <rect class="cls-1" y="-0.3" width="850.08" height="500.98" />
        </clipPath>
        <linearGradient id="linear-gradient" x1="588.72" y1="497.59" x2="508.57" y2="309.35"
            gradientUnits="userSpaceOnUse">
            <stop offset="0" stop-color="#d09fc9" />
            <stop offset="0.21" stop-color="#d09bc8" />
            <stop offset="0.43" stop-color="#cf8ec3" />
            <stop offset="0.65" stop-color="#cd78bc" />
            <stop offset="0.75" stop-color="#cc6db8" />
        </linearGradient>
    </defs>
    <g class="cls-2">
        <rect class="cls-3" width="754.08" height="503.38" />
        <path class="cls-4"
            d="M369.15,160.5c11.72,25.37,27.08,48.86,40.63,73.31,4.91,8.86,9.59,17.88,13.05,27.41,12.33,33.92,8.28,71.44,2.05,107-2.48,14.15-5.4,28.57-12.79,40.9-10.53,17.55-28.88,28.87-41.76,44.78a88.25,88.25,0,0,0-18.91,44.6l-.48,2.19H750.08V-.3H345.72A287.91,287.91,0,0,0,369.15,160.5Z"
            transform="translate(4 2.7)" />
        <path class="cls-5"
            d="M653.82,181.51a1.51,1.51,0,0,1-.5-.09c-58.12-20.48-89.8-68.78-106.15-105.7C529.5,35.81,525.46.22,525.42-.13a1.53,1.53,0,0,1,1.35-1.68,1.51,1.51,0,0,1,1.68,1.35c0,.35,4,35.54,21.54,75,16.1,36.34,47.28,83.88,104.34,104a1.52,1.52,0,0,1-.51,2.95Z"
            transform="translate(4 2.7)" />
        <path class="cls-5"
            d="M749.87,82.12c-43.92-6.3-65.35-28.33-75.6-45.7C663.16,17.58,662.48.47,662.46-.25l3-.1A82.81,82.81,0,0,0,677,35c9.92,16.75,30.69,38,73.34,44.11Z"
            transform="translate(4 2.7)" />
        <path class="cls-6"
            d="M716.61,42.68a15.34,15.34,0,0,1-8.33-2.36,12.62,12.62,0,0,1-5.65-8.42,13.07,13.07,0,0,1,1.17-7.54A13,13,0,0,1,711,17.52a9.91,9.91,0,0,1,9.91,1.74,8.26,8.26,0,0,1,1.76,10A7.14,7.14,0,0,1,718,32.52a6.56,6.56,0,0,1-5.16-.93,4.82,4.82,0,0,1-2-3.93,3,3,0,0,1,1.49-2.56,1.35,1.35,0,1,1,1.36,2.33c-.05,0-.14.08-.16.34a2.1,2.1,0,0,0,.84,1.61,3.82,3.82,0,0,0,3,.5,4.49,4.49,0,0,0,2.91-2,5.57,5.57,0,0,0-1.24-6.61,7.28,7.28,0,0,0-7.19-1.2,10.24,10.24,0,0,0-5.65,5.44,10.46,10.46,0,0,0-1,6,9.94,9.94,0,0,0,4.45,6.58,12.91,12.91,0,0,0,8.06,1.87c7.29-.6,13.77-7.39,14.14-14.82.15-3-.74-6.94-3.67-9a1.35,1.35,0,0,1,1.57-2.2c3.19,2.28,5,6.63,4.79,11.36-.44,8.86-7.89,16.66-16.61,17.38Q717.32,42.68,716.61,42.68Z"
            transform="translate(4 2.7)" />
        <path class="cls-7"
            d="M632.24,65.76a4.28,4.28,0,0,1-3.55-1.66c-1.07-1.33-1.26-3.63-1.39-5.15s-.2-2.48-1.41-2.6h-.24c-1.22.12-1.3,1.16-1.42,2.61s-.31,3.81-1.38,5.14a4.12,4.12,0,0,1-3.41,1.63,1.89,1.89,0,0,0-1.67.69,1.06,1.06,0,0,0,0,1.11,1.7,1.7,0,0,0,1.53.63,4.27,4.27,0,0,1,3.55,1.68c1.07,1.33,1.26,3.63,1.38,5.14s.2,2.5,1.43,2.62h.24c1.2-.12,1.29-1.16,1.4-2.61s.32-3.82,1.39-5.15a4.27,4.27,0,0,1,3.51-1.67,1.76,1.76,0,0,0,1.55-.61,1.07,1.07,0,0,0,.16-.78C633.73,65.82,632.68,65.78,632.24,65.76Z"
            transform="translate(4 2.7)" />
        <circle class="cls-8" cx="589.89" cy="38.41" r="23.58"
            transform="translate(149.61 431.07) rotate(-45)" />
        <path class="cls-9"
            d="M589.89,62a23.49,23.49,0,0,0,13.83-4.51c-22.33-4.66-30.22-20.85-33-32.83A23.55,23.55,0,0,0,589.89,62Z"
            transform="translate(4 2.7)" />
        <path class="cls-7"
            d="M565.08,60.71a10,10,0,0,1-4.39-.82,4.31,4.31,0,0,1-2.45-3.24c-1.21-7.55,8.88-10.8,9.31-10.94l.91,2.9c-.08,0-8,2.6-7.22,7.55a1.29,1.29,0,0,0,.81,1c4.2,2.11,19.24-2.38,34.24-10.22,16.84-8.81,24.58-16.28,24.77-19.77a.28.28,0,0,0-.11-.29c-1.26-1.06-6.61-.65-10.84.34l-.69-3c1.72-.39,10.44-2.25,13.48.3a3.28,3.28,0,0,1,1.2,2.79c-.31,5.56-9.93,13.68-26.41,22.29C586.27,55.62,572.94,60.71,565.08,60.71Z"
            transform="translate(4 2.7)" />
        <path class="cls-7"
            d="M644.85,38.41a3.77,3.77,0,1,1-3.77-3.77A3.77,3.77,0,0,1,644.85,38.41Z"
            transform="translate(4 2.7)" />
        <path class="cls-7"
            d="M650.53,11.07a3.77,3.77,0,1,1-3.77-3.77A3.76,3.76,0,0,1,650.53,11.07Z"
            transform="translate(4 2.7)" />
        <path class="cls-7" d="M661.54,63a3.77,3.77,0,1,1-3.77-3.77A3.77,3.77,0,0,1,661.54,63Z"
            transform="translate(4 2.7)" />
        <path class="cls-7"
            d="M600.29,86.06a3.77,3.77,0,1,1-3.77-3.77A3.77,3.77,0,0,1,600.29,86.06Z"
            transform="translate(4 2.7)" />
        <path class="cls-7"
            d="M656,150.53a11.28,11.28,0,0,1-7-2.54c-5.24-4.1-5.62-10.19-1.12-18.09l.27-.48c2-4,20.06-28.63,28.6-38.84,1.45-1.72,8.16-5.89,12.5-2.58,3.91,3,1.72,9.09.65,11a191.15,191.15,0,0,1-13.33,20.11c-2.14,2.92-4.35,6-6.78,9.46-4.83,7-8.41,6.77-10.56,5.38a4.37,4.37,0,0,1-2-2.89c-.61-3.23,2.15-7.09,3.63-9.16l.21-.31c6-8.48,10.17-13.9,15.81-21.19a1.52,1.52,0,1,1,2.4,1.85c-5.62,7.27-9.75,12.67-15.73,21.1l-.22.32c-.95,1.33-3.48,4.87-3.11,6.82a1.29,1.29,0,0,0,.65.91c2,1.31,5.16-2.75,6.41-4.56,2.45-3.54,4.67-6.58,6.82-9.53a187,187,0,0,0,13.15-19.81c.75-1.34,2.19-5.5.14-7.07-2.6-2-7.61,1.27-8.32,2.11-8.45,10.11-26.23,34.41-28.23,38.28l-.33.6c-2.36,4.13-4.88,10.09.36,14.18,4.23,3.31,9,2.32,14.68-3l.47-.43c1.76-1.58,19.26-26.37,29.71-41.19l6.26-8.86a1.52,1.52,0,1,1,2.49,1.75c-1.8,2.53-3.94,5.57-6.27,8.87-16,22.75-28.47,40.27-30.23,41.75l-.34.32C663.17,149.05,659.27,150.53,656,150.53Z"
            transform="translate(4 2.7)" />
        <path class="cls-10"
            d="M750.08,315,584.57,303.48l-54.25,41.71L414,405.6c-.61,1.18-1.25,2.36-1.94,3.51-10.53,17.55-28.88,28.87-41.76,44.78a88.25,88.25,0,0,0-18.91,44.6l-.48,2.19H750.08Z"
            transform="translate(4 2.7)" />
        <path class="cls-11"
            d="M562.06,137.77c-31.57,6.43-60.4,21.5-88.28,36.08L398,213.32l1.54,2.62,75.62-39.4c27.7-14.47,56.34-29.44,87.49-35.79,12.42-2.54,42.76-5.47,55.92,21.87,10.66,22.17-13.13,50.95-15.87,54.16-15.54,18.14-143,88.1-172,102.38q-.06,1.72-.15,3.45C457.22,309.81,588.4,238.17,605,218.76c2.88-3.36,27.81-33.55,16.31-57.45C607.24,132,575.19,135.1,562.06,137.77Z"
            transform="translate(4 2.7)" />
        <path class="cls-11"
            d="M475.12,341.15c-4.57-13.06-13.4-35-21.94-56.23s-17.39-43.21-22-56.34c-.23-.65-1-2.34-2.06-4.67-23.79-52.49-31-91-21.44-114.58A38.68,38.68,0,0,1,430.28,87.2c42.42-16.63,70.2,47.18,92.51,98.45l1.87,4.28c20.42,46.84,47.65,121.47,47.93,122.22l-2.86,1c-.27-.75-27.48-75.29-47.86-122L520,186.87C498.21,136.79,471.08,74.46,431.39,90a35.72,35.72,0,0,0-20.88,20.45c-9.23,22.73-2,60.48,21.4,112.17,1.14,2.5,1.88,4.15,2.16,4.93,4.56,13.06,13.39,35,21.93,56.21s17.4,43.23,22,56.36Z"
            transform="translate(4 2.7)" />
        <path class="cls-12"
            d="M492.89,99.58c-11,0-20,8.55-20,19.06s9,19.06,20,19.06,20-8.55,20-19.06S503.92,99.58,492.89,99.58Z"
            transform="translate(4 2.7)" />
        <path class="cls-13"
            d="M484.28,114.73a1.52,1.52,0,0,1-1.52-1.52v-2a1.52,1.52,0,0,1,3,0v2A1.52,1.52,0,0,1,484.28,114.73Z"
            transform="translate(4 2.7)" />
        <path class="cls-13"
            d="M501,114.73a1.52,1.52,0,0,1-1.52-1.52v-2a1.52,1.52,0,1,1,3,0v2A1.51,1.51,0,0,1,501,114.73Z"
            transform="translate(4 2.7)" />
        <path class="cls-13" d="M497,120.16h-8.44a1.52,1.52,0,1,1,0-3H497a1.52,1.52,0,1,1,0,3Z"
            transform="translate(4 2.7)" />
        <path class="cls-11"
            d="M508.55,106.81a18.5,18.5,0,0,1,.38,3.67c0,10.51-9,19.06-20,19.06a20.32,20.32,0,0,1-15.66-7.24c1.8,8.77,9.91,15.4,19.62,15.4,11,0,20-8.55,20-19.06A18.43,18.43,0,0,0,508.55,106.81Z"
            transform="translate(4 2.7)" />
        <path class="cls-12"
            d="M585.91,211.17c-11,0-20,8.55-20,19.07s9,19.06,20,19.06,20-8.55,20-19.06S596.94,211.17,585.91,211.17Z"
            transform="translate(4 2.7)" />
        <path class="cls-13"
            d="M577.3,226.32a1.52,1.52,0,0,1-1.52-1.52v-2a1.52,1.52,0,0,1,3,0v2A1.52,1.52,0,0,1,577.3,226.32Z"
            transform="translate(4 2.7)" />
        <path class="cls-13"
            d="M594,226.32a1.52,1.52,0,0,1-1.52-1.52v-2a1.52,1.52,0,0,1,3,0v2A1.52,1.52,0,0,1,594,226.32Z"
            transform="translate(4 2.7)" />
        <path class="cls-13" d="M590,231.76h-8.43a1.52,1.52,0,1,1,0-3H590a1.52,1.52,0,0,1,0,3Z"
            transform="translate(4 2.7)" />
        <path class="cls-11"
            d="M601.57,218.41a17.76,17.76,0,0,1,.38,3.66c0,10.52-9,19.07-20,19.07a20.35,20.35,0,0,1-15.66-7.24c1.8,8.76,9.91,15.4,19.62,15.4,11,0,20-8.55,20-19.06A18.42,18.42,0,0,0,601.57,218.41Z"
            transform="translate(4 2.7)" />
        <polygon class="cls-14"
            points="608.06 378.79 564.18 397.51 668.18 470.84 754.08 436.61 754.08 370.78 608.06 378.79" />
        <polygon class="cls-15"
            points="612.44 368.15 568.73 386.87 672.31 460.2 753.33 425.97 753.33 360.15 612.44 368.15" />
        <path class="cls-15"
            d="M668.31,458.26a.76.76,0,0,1-.43-.14L564.3,384.79a.74.74,0,0,1-.32-.7.76.76,0,0,1,.46-.62l43.7-18.72a1.1,1.1,0,0,1,.26-.06l140.88-8a.8.8,0,0,1,.57.2.79.79,0,0,1,.23.56v65.82a.75.75,0,0,1-.46.7l-81,34.23A.8.8,0,0,1,668.31,458.26Zm-102-73.92,102.13,72.3,80.16-33.87V358.25l-140,7.95Z"
            transform="translate(4 2.7)" />
        <polygon class="cls-16"
            points="600.2 373.45 677.67 428.72 753.33 398.21 753.33 368.15 632.83 360.15 600.2 373.45" />
        <path class="cls-16"
            d="M673.67,426.78a.76.76,0,0,1-.43-.14l-77.48-55.27a.79.79,0,0,1-.31-.71.76.76,0,0,1,.47-.62l32.63-13.3a.74.74,0,0,1,.33-.05l120.5,8a.76.76,0,0,1,.7.76v30.06a.75.75,0,0,1-.47.7L674,426.73A1,1,0,0,1,673.67,426.78Zm-75.91-55.85,76,54.23L748.57,395V366.16L629,358.22Z"
            transform="translate(4 2.7)" />
        <path class="cls-17"
            d="M696.27,389.87a10.76,10.76,0,0,0,.1-2.48c-.53-8.85-8.26-27.14-8.26-27.14L584.23,299s1.3,12.62-.05,22.21c-1.72,12.28-6.31,16-6.31,16l101.42,70.21h6.17l8-9.48"
            transform="translate(4 2.7)" />
        <path class="cls-17"
            d="M685.46,408.9h-6.17a1.46,1.46,0,0,1-.86-.27L577,338.42a1.52,1.52,0,0,1-.09-2.43s4.16-3.66,5.76-15c1.3-9.3.05-21.72,0-21.84a1.52,1.52,0,0,1,2.28-1.47L688.89,359a1.43,1.43,0,0,1,.62.71c.32.76,7.84,18.63,8.37,27.64a11.54,11.54,0,0,1-.12,2.84,1.52,1.52,0,1,1-3-.54,9.24,9.24,0,0,0,.08-2.12c-.46-7.73-6.76-23.3-7.94-26.17L586,301.75a103.62,103.62,0,0,1-.3,19.63c-1.23,8.74-3.91,13.4-5.53,15.52l99.61,69h5l7.52-8.94a1.52,1.52,0,1,1,2.33,2l-8,9.48A1.52,1.52,0,0,1,685.46,408.9Z"
            transform="translate(4 2.7)" />
        <polyline class="cls-11"
            points="682.38 416.16 576.53 340.73 581.82 338.49 688.49 410.08 682.38 416.16" />
        <path class="cls-11"
            d="M678.38,415a1.48,1.48,0,0,1-.87-.28L571.66,339.27a1.53,1.53,0,0,1-.63-1.41,1.51,1.51,0,0,1,.91-1.23l5.29-2.24a1.5,1.5,0,0,1,1.42.14l106.68,71.59a1.48,1.48,0,0,1,.66,1.12,1.5,1.5,0,0,1-.44,1.22l-6.11,6.08A1.51,1.51,0,0,1,678.38,415ZM575.62,338.37l102.6,73.11,3.9-3.87-104.47-70.1Z"
            transform="translate(4 2.7)" />
        <polygon class="cls-12"
            points="752.58 337.55 689.04 368.15 581.82 297.5 643.03 267.62 752.58 275.22 752.58 337.55" />
        <path class="cls-12"
            d="M685,367a1.47,1.47,0,0,1-.83-.25L577,296.07a1.53,1.53,0,0,1,.17-2.64l61.21-29.88a1.41,1.41,0,0,1,.76-.15L748.68,271a1.51,1.51,0,0,1,1.4,1.51v62.33a1.52,1.52,0,0,1-.86,1.37l-63.53,30.6A1.51,1.51,0,0,1,685,367ZM580.87,295l104.28,68.71,61.92-29.82V273.94l-107.75-7.48Zm167.7,39.85h0Z"
            transform="translate(4 2.7)" />
        <path class="cls-18"
            d="M688.39,378.58a1.47,1.47,0,0,1-.83-.25L584.28,308.82a1.52,1.52,0,0,1-.42-2.1,1.5,1.5,0,0,1,2.09-.42l103.28,69.5a1.52,1.52,0,0,1,.42,2.1A1.51,1.51,0,0,1,688.39,378.58Z"
            transform="translate(4 2.7)" />
        <path class="cls-18"
            d="M688.2,388.08a1.5,1.5,0,0,1-.83-.26L585,318.9a1.52,1.52,0,0,1-.41-2.11,1.49,1.49,0,0,1,2.09-.42L689,385.29a1.54,1.54,0,0,1,.42,2.11A1.51,1.51,0,0,1,688.2,388.08Z"
            transform="translate(4 2.7)" />
        <path class="cls-18"
            d="M685.47,397a1.5,1.5,0,0,1-.85-.27L583.69,326.25a1.53,1.53,0,0,1-.38-2.11,1.5,1.5,0,0,1,2.1-.39l100.92,70.51a1.51,1.51,0,0,1,.38,2.11A1.49,1.49,0,0,1,685.47,397Z"
            transform="translate(4 2.7)" />
        <path class="cls-18"
            d="M683.26,405.28a1.48,1.48,0,0,1-.87-.28L580.46,332.35a1.51,1.51,0,0,1,1.74-2.48l101.93,72.65a1.53,1.53,0,0,1,.36,2.12A1.5,1.5,0,0,1,683.26,405.28Z"
            transform="translate(4 2.7)" />
        <path class="cls-11"
            d="M748.57,382.43l-70.19,31a57.19,57.19,0,0,0,9.67-25.52c2-16.38-3-22.49-3-22.49l63.53-29.08Z"
            transform="translate(4 2.7)" />
        <path class="cls-11"
            d="M678.38,415a1.52,1.52,0,0,1-1.19-2.45,56.26,56.26,0,0,0,9.36-24.78c1.89-15.36-2.64-21.28-2.68-21.34a1.55,1.55,0,0,1-.29-1.31,1.49,1.49,0,0,1,.83-1L748,335a1.51,1.51,0,0,1,1.44.11,1.52,1.52,0,0,1,.69,1.28v46.06a1.51,1.51,0,0,1-.9,1.39l-70.19,31A1.46,1.46,0,0,1,678.38,415Zm8.83-48.86c1.47,2.87,3.85,9.68,2.33,22a60.06,60.06,0,0,1-7.21,21.93l64.74-28.61V338.72Zm61.36,16.31h0Z"
            transform="translate(4 2.7)" />
        <path class="cls-19"
            d="M695.76,374a2.26,2.26,0,0,1-2.06-1.33,2.29,2.29,0,0,1,1.11-3L702.7,366a2.26,2.26,0,0,1,3,1.12,2.29,2.29,0,0,1-1.11,3l-7.89,3.66A2.29,2.29,0,0,1,695.76,374Z"
            transform="translate(4 2.7)" />
        <path class="cls-19"
            d="M715.17,365a2.26,2.26,0,0,1-2.06-1.32,2.3,2.3,0,0,1,1.11-3l25-11.6a2.25,2.25,0,0,1,3,1.12,2.29,2.29,0,0,1-1.11,3l-25,11.6A2.21,2.21,0,0,1,715.17,365Z"
            transform="translate(4 2.7)" />
        <path class="cls-20"
            d="M682.59,351.74a2.16,2.16,0,0,1-1.17-.33l-30.14-18.35a2.29,2.29,0,0,1-.77-3.13,2.26,2.26,0,0,1,3.11-.77l30.13,18.35a2.29,2.29,0,0,1,.77,3.13A2.24,2.24,0,0,1,682.59,351.74Z"
            transform="translate(4 2.7)" />
        <polygon class="cls-11"
            points="752.58 308.61 623.72 308.61 650.79 272.63 752.58 278.97 752.58 308.61" />
        <path class="cls-11"
            d="M748.57,307.43H619.72a1.52,1.52,0,0,1-1.2-2.44l27.07-36a1.49,1.49,0,0,1,1.29-.59l101.79,6.34a1.5,1.5,0,0,1,1.41,1.51v29.64A1.51,1.51,0,0,1,748.57,307.43Zm-125.82-3H747.07V277.7l-99.57-6.2Z"
            transform="translate(4 2.7)" />
        <rect class="cls-15" x="643.53" y="262.86" width="109.79" height="38.8" />
        <path class="cls-15"
            d="M749.33,299.71H639.53a.75.75,0,0,1-.75-.76V260.16a.75.75,0,0,1,.75-.76h109.8a.76.76,0,0,1,.75.76V299A.76.76,0,0,1,749.33,299.71Zm-109-1.52H748.57V260.92H640.29Z"
            transform="translate(4 2.7)" />
        <rect class="cls-16" x="643.82" y="262.86" width="109.5" height="12.7" />
        <path class="cls-16"
            d="M749.33,273.61H639.82a.76.76,0,0,1-.75-.76V260.16a.76.76,0,0,1,.75-.76H749.33a.76.76,0,0,1,.75.76v12.69A.76.76,0,0,1,749.33,273.61Zm-108.75-1.52h108V260.92h-108Z"
            transform="translate(4 2.7)" />
        <polyline class="cls-8" points="754.08 216.71 623.96 216.71 721.81 141.27 754.08 141.27" />
        <path class="cls-8"
            d="M748.58,215.53H619.94a1.5,1.5,0,0,1-1.42-1,1.53,1.53,0,0,1,.5-1.69l96.74-75.44a1.45,1.45,0,0,1,.92-.32h31.9a1.52,1.52,0,0,1,0,3H717.19l-92.84,72.4H748.58a1.52,1.52,0,0,1,0,3Z"
            transform="translate(4 2.7)" />
        <rect class="cls-21" x="623.53" y="216.71" width="129.05" height="45.89" />
        <path class="cls-21"
            d="M748.58,261.42H619.53a1.51,1.51,0,0,1-1.5-1.52V214a1.51,1.51,0,0,1,1.5-1.52H748.58a1.51,1.51,0,0,1,1.5,1.52V259.9A1.51,1.51,0,0,1,748.58,261.42Zm-127.55-3H747.08V215.53H621Z"
            transform="translate(4 2.7)" />
        <polygon class="cls-22"
            points="749.09 262.6 752.58 262.6 752.58 216.71 665.94 216.71 749.09 262.6" />
        <path class="cls-22"
            d="M748.58,261.42h-3.49a1.51,1.51,0,0,1-.72-.18l-83.15-45.89a1.53,1.53,0,0,1-.73-1.71,1.5,1.5,0,0,1,1.45-1.15h86.64a1.51,1.51,0,0,1,1.5,1.52V259.9A1.51,1.51,0,0,1,748.58,261.42Zm-3.11-3h1.61V215.53H667.83Z"
            transform="translate(4 2.7)" />
        <path class="cls-8"
            d="M709.13,240.42h0a10.78,10.78,0,0,0-2.83-7.7,10.46,10.46,0,0,0-7.38-3.41,10.58,10.58,0,0,0-4.65.9l.18-5a3,3,0,0,0-2.9-3.11,3,3,0,0,0-3.1,2.89l-.78,22.11a3,3,0,0,0,.8,2.16,2.92,2.92,0,0,0,1.58.89,4,4,0,0,0,.5.06,3,3,0,0,0,2.43-1.09,10.49,10.49,0,0,0,12.78-1.28A10.7,10.7,0,0,0,709.13,240.42Zm-9.66-4.92a4.57,4.57,0,0,1,3.66,4.7h0a4.6,4.6,0,1,1-4.43-4.79A4.77,4.77,0,0,1,699.47,235.5Z"
            transform="translate(4 2.7)" />
        <path class="cls-8"
            d="M698.55,251.32h-.41a11.08,11.08,0,0,1-5.06-1.44,3.58,3.58,0,0,1-2.55.94,3.59,3.59,0,0,1-2.47-1.12,3.59,3.59,0,0,1-1-2.58l.79-22.11a3.54,3.54,0,0,1,3.67-3.44,3.59,3.59,0,0,1,3.45,3.7l-.14,4.09a11.07,11.07,0,0,1,11.84,3,11.3,11.3,0,0,1,3,8.11h0a11.31,11.31,0,0,1-3.55,7.85A11,11,0,0,1,698.55,251.32ZM693,248.58a.58.58,0,0,1,.3.09,9.93,9.93,0,0,0,12.09-1.22,10.24,10.24,0,0,0,.51-14.35,9.85,9.85,0,0,0-7-3.23,10,10,0,0,0-4.4.85.55.55,0,0,1-.54-.05.56.56,0,0,1-.25-.49l.17-5a2.44,2.44,0,0,0-4.87-.17l-.78,22.1a2.43,2.43,0,0,0,.65,1.75,2.39,2.39,0,0,0,1.28.72,2.7,2.7,0,0,0,.41,0,2.46,2.46,0,0,0,2-.88A.54.54,0,0,1,693,248.58Zm16.15-8.16h0Zm-10.59,4.81h-.18a5.21,5.21,0,0,1-3.35-9,5.06,5.06,0,0,1,3.71-1.38,4.82,4.82,0,0,1,.86.1,5.2,5.2,0,0,1-1,10.29Zm0-9.26a4.06,4.06,0,1,0,.83.09h0a3.84,3.84,0,0,0-.68-.09Z"
            transform="translate(4 2.7)" />
        <path class="cls-8"
            d="M666.86,228.2a11,11,0,0,0-7.92,3.17,11.3,11.3,0,0,0,7.55,19.38,10.07,10.07,0,0,0,5.4-1.52,3,3,0,0,0,2.53,1.39,3,3,0,0,0,1.37-.29,3.24,3.24,0,0,0,1.88-2.9l.13-7.86h0A11.26,11.26,0,0,0,666.86,228.2Zm4.64,11.35A4.89,4.89,0,0,1,670,243a4.79,4.79,0,0,1-6.83-.12,4.88,4.88,0,0,1,1.47-7.81,4.67,4.67,0,0,1,2.08-.43,4.8,4.8,0,0,1,3.4,1.46A4.91,4.91,0,0,1,671.5,239.55Z"
            transform="translate(4 2.7)" />
        <path class="cls-8"
            d="M666.64,251.32h-.16A11.87,11.87,0,0,1,658.55,231a11.55,11.55,0,0,1,8.32-3.33h0a11.82,11.82,0,0,1,11.49,11.93l-.12,7.88a3.84,3.84,0,0,1-2.22,3.41,3.67,3.67,0,0,1-4.28-.88A10.6,10.6,0,0,1,666.64,251.32Zm0-22.55a10.48,10.48,0,0,0-7.35,3,10.73,10.73,0,0,0,7.17,18.4,9.32,9.32,0,0,0,5.1-1.44.56.56,0,0,1,.76.17,2.46,2.46,0,0,0,2.07,1.14,2.32,2.32,0,0,0,1.13-.23,2.72,2.72,0,0,0,1.55-2.39l.13-7.87a10.7,10.7,0,0,0-10.39-10.79Zm0,16.15h-.08a5.29,5.29,0,0,1-3.79-1.67,5.46,5.46,0,0,1,1.65-8.72,5.13,5.13,0,0,1,2.31-.48,5.3,5.3,0,0,1,3.8,1.64,5.4,5.4,0,0,1,1.5,3.87h0a5.46,5.46,0,0,1-1.62,3.82A5.32,5.32,0,0,1,666.67,244.92Zm0-9.73a4.13,4.13,0,0,0-1.76.38,4.3,4.3,0,0,0-1.3,6.89,4.2,4.2,0,0,0,3,1.32h.07a4.23,4.23,0,0,0,3-1.21,4.34,4.34,0,0,0,1.29-3,4.29,4.29,0,0,0-1.19-3.07,4.2,4.2,0,0,0-3-1.29Zm4.83,4.36h0Z"
            transform="translate(4 2.7)" />
        <path class="cls-8"
            d="M734,242.16a4.08,4.08,0,0,0-2.56,1.09,4.57,4.57,0,0,1-3.13,1.09,4.72,4.72,0,0,1-4.62-4.81v-.06h0a4.81,4.81,0,0,1,4.61-4.77,4.7,4.7,0,0,1,3.21,1.16A4.15,4.15,0,0,0,734,237a3.22,3.22,0,0,0,3.13-3.13,3.57,3.57,0,0,0-1-2.49,10.56,10.56,0,0,0-7.56-3.11,11.23,11.23,0,0,0-11.29,11v.25c0,.17,0,.35,0,.53v.45h0a11,11,0,0,0,11.05,10.23,10.54,10.54,0,0,0,7.61-3,3.62,3.62,0,0,0,1.09-2.48A3.16,3.16,0,0,0,734,242.16Z"
            transform="translate(4 2.7)" />
        <path class="cls-8"
            d="M728.47,251.32h-.11a11.63,11.63,0,0,1-11.6-10.61.58.58,0,0,1,0-.18v-.46c0-.17,0-.35,0-.54v-.25a11.84,11.84,0,0,1,11.75-11.55h.11a11.09,11.09,0,0,1,8,3.29,4.11,4.11,0,0,1,1.19,2.89,3.8,3.8,0,0,1-3.67,3.69h0a4.76,4.76,0,0,1-2.9-1.29,4.13,4.13,0,0,0-2.87-1h0a4.23,4.23,0,0,0-4,4.2v.06a4.17,4.17,0,0,0,4.07,4.24h.05a4,4,0,0,0,2.71-1,4.49,4.49,0,0,1,2.93-1.21,3.74,3.74,0,0,1,3.65,3.72,4.19,4.19,0,0,1-1.25,2.88A11.07,11.07,0,0,1,728.47,251.32Zm-10.62-10.95s0,.07,0,.11a10.5,10.5,0,0,0,10.5,9.7,9.92,9.92,0,0,0,7.2-2.8,3,3,0,0,0,.92-2.08,2.59,2.59,0,0,0-2.53-2.57h0a3.49,3.49,0,0,0-2.22,1,5.12,5.12,0,0,1-3.41,1.22h-.06a5.29,5.29,0,0,1-5.19-5.38.15.15,0,0,1,0-.07h0a5.4,5.4,0,0,1,5.14-5.33h0a5.21,5.21,0,0,1,3.58,1.3,3.64,3.64,0,0,0,2.19,1h0a2.64,2.64,0,0,0,2.55-2.56,3.09,3.09,0,0,0-.87-2.09,9.94,9.94,0,0,0-7.17-2.94h-.1a10.69,10.69,0,0,0-10.62,10.43v.25c0,.16,0,.33,0,.5Z"
            transform="translate(4 2.7)" />
        <path class="cls-23"
            d="M740.93,208H714.69a2.28,2.28,0,0,1,0-4.56h26.24a2.28,2.28,0,1,1,0,4.56Z"
            transform="translate(4 2.7)" />
        <path class="cls-23"
            d="M703.3,208h-6.49a2.28,2.28,0,0,1,0-4.56h6.49a2.28,2.28,0,1,1,0,4.56Z"
            transform="translate(4 2.7)" />
        <path class="cls-14"
            d="M430.44,486.15c.39.59.61,1,.62,1a1.53,1.53,0,0,0,1.31.73,1.29,1.29,0,0,0,.19,0l7.62,6a1.57,1.57,0,0,0,.94.32,1.5,1.5,0,0,0,1.16-.54l7.25-8.5a46.82,46.82,0,0,1,2.57,4.29,1.36,1.36,0,0,0,.23.34l.1.1a1.56,1.56,0,0,0,.2.16l.14.08a1.89,1.89,0,0,0,.21.09l.17.05a.45.45,0,0,1,.11,0h.23a1.61,1.61,0,0,0,.62-.15h0a1.47,1.47,0,0,0,.48-.37h0l92.74-106a1.53,1.53,0,0,0,.3-1.49c-.32-.92-7-19.52-31.58-29.59l-102,53c-.61,1.18-1.25,2.36-1.94,3.51-8.52,14.21-22.18,24.34-33.91,36.13Z"
            transform="translate(4 2.7)" />
        <polygon class="cls-11"
            points="445.12 487.68 372.16 430.56 281.06 428.72 287.03 418.64 313.42 392.57 427.69 431.03 487.33 438.18 445.12 487.68" />
        <path class="cls-11"
            d="M441.12,486.5a1.57,1.57,0,0,1-.94-.32l-72.56-56.81L277,427.54a1.52,1.52,0,0,1-1.27-2.29l6-10.08a1.83,1.83,0,0,1,.24-.31l26.39-26.07a1.53,1.53,0,0,1,1.55-.36L424,426.84,483.51,434a1.52,1.52,0,0,1,1,2.5L442.28,486A1.53,1.53,0,0,1,441.12,486.5ZM279.7,424.56l88.49,1.78a1.54,1.54,0,0,1,.9.32l71.82,56.23,39.43-46.24-56.84-6.81-.3-.07L309.82,391.61l-25.58,25.28Z"
            transform="translate(4 2.7)" />
        <path class="cls-24"
            d="M365.12,424.21s-19.22-10.55-42.4-11.49c-19-.78-41.3,1.83-41.3,1.83l4.9-7.79,31-1.89s35.74,6.58,36.31,6.58S365.12,424.21,365.12,424.21Z"
            transform="translate(4 2.7)" />
        <path class="cls-24"
            d="M365.12,425.73a1.58,1.58,0,0,1-.73-.18c-.19-.11-19.2-10.4-41.73-11.32-18.65-.76-40.84,1.81-41.06,1.83a1.49,1.49,0,0,1-1.46-.7,1.53,1.53,0,0,1,0-1.62L285,406a1.5,1.5,0,0,1,1.19-.71l31-1.89a1.45,1.45,0,0,1,.36,0c13.95,2.57,35.1,6.44,36.17,6.57.71,0,1.13,0,12.47,13.29a1.51,1.51,0,0,1-1.15,2.5Zm-49.79-14.67c2.51,0,5,0,7.46.14,15.36.62,28.87,5.33,36.5,8.58-2.91-3.34-5.42-6.14-6.23-6.89-1.68-.27-8.33-1.44-35.79-6.5l-30.08,1.84-2.82,4.48C290.08,412.15,302.75,411.06,315.33,411.06Zm38,1.87a1.66,1.66,0,0,0,.33,0A2,2,0,0,1,353.33,412.93Z"
            transform="translate(4 2.7)" />
        <path class="cls-24"
            d="M368.61,427.4c-34.26-17.46-86.27-6.65-86.27-6.65l3.19-5.26s22.47-2.81,23-2.82,47.9,5.69,50.31,7.49,7,1.74,7,1.74"
            transform="translate(4 2.7)" />
        <path class="cls-24"
            d="M368.61,428.92a1.47,1.47,0,0,1-.69-.17c-33.39-17-84.76-6.62-85.27-6.51a1.53,1.53,0,0,1-1.55-.62A1.52,1.52,0,0,1,281,420l3.19-5.26a1.49,1.49,0,0,1,1.11-.72c6.78-.85,22.61-2.81,23.19-2.83h0c.47,0,48.33,5.61,51.26,7.79,1.63,1.21,5,1.44,6.06,1.44h0a1.52,1.52,0,0,1,0,3,19.69,19.69,0,0,1-2.88-.22c2.15.86,4.26,1.8,6.3,2.85a1.52,1.52,0,0,1-.69,2.87Zm-12.06-8,1.47.47,0,0A6.93,6.93,0,0,0,356.55,420.94Zm-70.1-4-1.05,1.73a200.83,200.83,0,0,1,37.43-2.71c-7.32-.94-13.16-1.64-14.25-1.73C307.31,414.31,295,415.83,286.45,416.9Z"
            transform="translate(4 2.7)" />
        <path class="cls-17"
            d="M450.76,342.31s-22.95-15.79-42.68-21.05S363.57,316,363.57,316L281,408.13s37.18-8.26,61.87,2.74a90.12,90.12,0,0,1,25.33,17Z"
            transform="translate(4 2.7)" />
        <path class="cls-17"
            d="M368.16,429.38a1.49,1.49,0,0,1-1.09-.46,89.08,89.08,0,0,0-24.86-16.66c-24-10.67-60.55-2.73-60.92-2.65a1.52,1.52,0,0,1-1.46-2.5L362.44,315a1.47,1.47,0,0,1,1.13-.51c.25,0,25.2.06,44.9,5.31s42.2,20.62,43.15,21.27a1.48,1.48,0,0,1,.65,1.1,1.55,1.55,0,0,1-.42,1.21l-82.6,85.55a1.55,1.55,0,0,1-1.09.46ZM310.34,403.6c10.85,0,22.94,1.35,33.11,5.89a92.71,92.71,0,0,1,24.67,16.22l80.28-83.15C443,339,424.08,327.1,407.69,322.73c-17.52-4.67-39.36-5.15-43.45-5.2L285.1,405.79A154.78,154.78,0,0,1,310.34,403.6Z"
            transform="translate(4 2.7)" />
        <path class="cls-18"
            d="M367,428.8a1.52,1.52,0,0,1-.79-.22c-.21-.13-21.49-13-44-13.89-18.65-.75-40.84,1.81-41.06,1.83a1.52,1.52,0,1,1-.35-3c.22,0,22.63-2.61,41.54-1.84,23.3.94,44.55,13.78,45.45,14.32a1.52,1.52,0,0,1,.5,2.09A1.5,1.5,0,0,1,367,428.8Z"
            transform="translate(4 2.7)" />
        <path class="cls-18"
            d="M368.16,429.38a1.5,1.5,0,0,1-1.09-.46,89.08,89.08,0,0,0-24.86-16.66c-24-10.67-60.55-2.73-60.92-2.65a1.52,1.52,0,0,1-.66-3c1.54-.34,37.95-8.24,62.82,2.85a90.48,90.48,0,0,1,25.79,17.31,1.51,1.51,0,0,1-1.08,2.58Z"
            transform="translate(4 2.7)" />
        <path class="cls-24"
            d="M444.06,474.58l-7,3.42s-8-13.24-24.29-27.13c-8.74-7.42-39.47-22.6-39.47-22.6s22.11,1.55,34.75,6.48S442,464.17,442,464.17L444.31,475"
            transform="translate(4 2.7)" />
        <path class="cls-24"
            d="M437.09,479.52a1.54,1.54,0,0,1-1.31-.74c-.08-.13-8-13.21-24-26.75-8.5-7.22-38.84-22.25-39.15-22.4a1.52,1.52,0,0,1,.78-2.88c.91.07,22.49,1.63,35.19,6.58s33.62,28.83,34.5,29.85a1.43,1.43,0,0,1,.34.67l2.33,10.82a1.51,1.51,0,0,1-1.17,1.8,1.45,1.45,0,0,1-.85-.06l-6,2.95A1.43,1.43,0,0,1,437.09,479.52Zm-55.8-48.93c9.69,5,26.3,13.86,32.49,19.13A129.42,129.42,0,0,1,437.64,476l4.84-2.36-1.9-8.79c-2.43-2.77-21.64-24.28-33.06-28.72C400,433.22,388.8,431.49,381.29,430.59Z"
            transform="translate(4 2.7)" />
        <path class="cls-24"
            d="M448,471l-16.53-18.12-44.26-25.59-19,.58s37.38,14,47.72,21.34c13.37,9.43,20.27,21,23.46,26.12a15.05,15.05,0,0,0,1.78,2.56l6.09-6.26"
            transform="translate(4 2.7)" />
        <path class="cls-24"
            d="M441.12,479.4a1.47,1.47,0,0,1-1-.38,14,14,0,0,1-2.07-2.9l-.3-.49c-3.26-5.27-10-16.22-22.74-25.19-10.07-7.1-47-21-47.39-21.16a1.52,1.52,0,0,1,.49-2.94l19.06-.58a1.41,1.41,0,0,1,.8.21l44.26,25.59a1.28,1.28,0,0,1,.37.29L449.12,470a1.52,1.52,0,0,1-.1,2.15,1.39,1.39,0,0,1-.52.31,1.21,1.21,0,0,1-.2.26l-6.09,6.26A1.5,1.5,0,0,1,441.12,479.4Zm-65.38-50.25c11.4,4.46,33.31,13.37,41,18.81C430,457.28,437,468.59,440.33,474l.3.49.65,1,4.55-4.68-15.32-16.79-43.68-25.26Z"
            transform="translate(4 2.7)" />
        <path class="cls-17"
            d="M368.16,427.86s29.58,3.21,53.23,19.73c24,16.77,32.08,33.5,32.08,33.5l92.74-106s-8.72-25.24-44.05-32.78c-17.49-3.73-51.4,0-51.4,0Z"
            transform="translate(4 2.7)" />
        <path class="cls-17"
            d="M453.47,482.61h-.21a1.53,1.53,0,0,1-1.16-.85c-.08-.16-8.23-16.6-31.58-32.91-23-16.1-52.24-19.44-52.53-19.47a1.52,1.52,0,0,1-.93-2.56l82.6-85.55a1.53,1.53,0,0,1,.93-.46c1.4-.15,34.36-3.71,51.88,0,35.77,7.62,44.81,32.7,45.18,33.76a1.55,1.55,0,0,1-.3,1.5l-92.74,106A1.53,1.53,0,0,1,453.47,482.61Zm-82.16-55.83c8.2,1.32,31.65,6.08,50.95,19.57,19.52,13.64,28.59,27.13,31.5,32.1l90.69-103.66c-1.85-4.27-12.11-24.49-42.61-31-15.85-3.38-46-.49-50.37,0Z"
            transform="translate(4 2.7)" />
        <path class="cls-18"
            d="M440.32,478.51a1.46,1.46,0,0,1-1-.37,17.08,17.08,0,0,1-2.38-3.39c-3.25-5.27-10-16.23-22.74-25.19-10.07-7.1-47-21-47.38-21.16a1.52,1.52,0,1,1,1.07-2.85c1.53.58,37.68,14.2,48.06,21.52,13.22,9.33,20.22,20.64,23.58,26.08a28.18,28.18,0,0,0,1.79,2.71,1.52,1.52,0,0,1-1,2.65Z"
            transform="translate(4 2.7)" />
        <path class="cls-18"
            d="M453.47,482.61a1.5,1.5,0,0,1-1.37-.86c-.08-.16-8.23-16.6-31.58-32.91-23.07-16.11-52.24-19.44-52.53-19.47a1.52,1.52,0,1,1,.33-3c.3,0,30.24,3.44,53.94,20,24.05,16.8,32.24,33.38,32.57,34.08a1.52,1.52,0,0,1-.7,2A1.58,1.58,0,0,1,453.47,482.61Z"
            transform="translate(4 2.7)" />
        <path class="cls-24"
            d="M373.33,422.5c15.78-10.65,98.2-69.6,146.58-74.08a74.57,74.57,0,0,0-17.75-6.11c-17.49-3.73-60-1.94-60-1.94Z"
            transform="translate(4 2.7)" />
        <path class="cls-24"
            d="M373.33,424a1.52,1.52,0,0,1-1.16-2.5L441,339.39a1.58,1.58,0,0,1,1.11-.54c1.74-.07,42.91-1.75,60.38,2a75.64,75.64,0,0,1,18.12,6.23,1.53,1.53,0,0,1-.54,2.88c-44.37,4.1-117.28,54.19-141.24,70.65l-4.63,3.17A1.54,1.54,0,0,1,373.33,424Zm69.55-82.16L381.61,415c26.62-18.22,90-60.47,132.77-67.39a75.88,75.88,0,0,0-12.54-3.8C485.93,340.4,448.36,341.66,442.88,341.86Z"
            transform="translate(4 2.7)" />
        <path class="cls-18"
            d="M401.75,364.53a1.52,1.52,0,0,1-1.22-.61c-2-2.7-11.29-10.66-29.87-15-10.37-2.4-18.34-2.89-23.68-1.44a1.52,1.52,0,0,1-.79-2.94c5.82-1.57,14.29-1.09,25.16,1.42,17.42,4,28.45,11.84,31.62,16.11a1.52,1.52,0,0,1-1.22,2.42Z"
            transform="translate(4 2.7)" />
        <path class="cls-18"
            d="M388.75,381.18a1.52,1.52,0,0,1-1.22-.62c-2-2.7-11.29-10.65-29.87-14.95-10.38-2.41-18.34-2.89-23.68-1.45a1.52,1.52,0,1,1-.8-2.93c5.83-1.57,14.3-1.1,25.16,1.41,17.42,4,28.46,11.84,31.63,16.11a1.53,1.53,0,0,1-1.22,2.43Z"
            transform="translate(4 2.7)" />
        <path class="cls-18"
            d="M375.75,397.82a1.53,1.53,0,0,1-1.23-.61c-2-2.7-11.28-10.66-29.87-15-10.37-2.4-18.33-2.89-23.68-1.44a1.52,1.52,0,0,1-.79-2.94c5.83-1.57,14.29-1.09,25.16,1.42,17.42,4,28.45,11.84,31.62,16.1a1.52,1.52,0,0,1-1.21,2.43Z"
            transform="translate(4 2.7)" />
        <path class="cls-18"
            d="M414.76,347.89a1.5,1.5,0,0,1-1.22-.61c-2-2.71-11.29-10.66-29.88-15-10.37-2.4-18.34-2.89-23.68-1.44a1.52,1.52,0,0,1-.79-2.94c5.83-1.57,14.29-1.1,25.16,1.42,17.42,4,28.46,11.84,31.63,16.1a1.53,1.53,0,0,1-1.22,2.43Z"
            transform="translate(4 2.7)" />
        <path class="cls-18"
            d="M368.15,429.38a1.52,1.52,0,0,1-1.26-2.36c20.59-31.31,76.33-90,76.89-90.61a1.52,1.52,0,1,1,2.2,2.1c-.56.58-56.11,59.1-76.55,90.19A1.54,1.54,0,0,1,368.15,429.38Z"
            transform="translate(4 2.7)" />
        <path class="cls-25"
            d="M501.61,416.82a2.27,2.27,0,0,1-1.67-3.82l26.31-28.66a2.28,2.28,0,1,1,3.36,3.08l-26.32,28.66A2.27,2.27,0,0,1,501.61,416.82Z"
            transform="translate(4 2.7)" />
        <path class="cls-25"
            d="M533.05,382.58a2.25,2.25,0,0,1-1.54-.59,2.29,2.29,0,0,1-.14-3.23l5-5.44a2.28,2.28,0,1,1,3.35,3.09l-5,5.44A2.27,2.27,0,0,1,533.05,382.58Z"
            transform="translate(4 2.7)" />
        <path class="cls-25"
            d="M457.18,470.42a2.28,2.28,0,0,1-2-1.23,70.12,70.12,0,0,0-3.59-6.1,2.28,2.28,0,1,1,3.81-2.51,75.24,75.24,0,0,1,3.82,6.5,2.27,2.27,0,0,1-1,3.08A2.37,2.37,0,0,1,457.18,470.42Z"
            transform="translate(4 2.7)" />
        <path class="cls-25"
            d="M448,456.85a2.26,2.26,0,0,1-1.73-.8C433.71,441.42,419.13,437,419,436.92a2.28,2.28,0,0,1,1.3-4.37c.65.19,16,4.89,29.45,20.53a2.28,2.28,0,0,1-1.73,3.77Z"
            transform="translate(4 2.7)" />
        <path class="cls-14"
            d="M631.34,458.94a13.16,13.16,0,0,0-3.75-2.52L556,428.86c-.22-.08-5.46-2.08-9.59-1.6a19.8,19.8,0,0,0-4,1,10.56,10.56,0,0,1-4.39.8c-.43,0-1.33-.2-2.29-.37-5.58-1-9.61-1.54-10.67.81l1,.47-1.08-.36.52.21-.53-.17c-.78,2.45,2.56,4.76,7.37,7.75.83.52,1.61,1,2,1.27a10.62,10.62,0,0,1,2.73,3.53,19.37,19.37,0,0,0,2.28,3.39c2.75,3.13,8,5.17,8.2,5.26l71.69,27.6a15.22,15.22,0,0,0,3.72.65,4.31,4.31,0,0,0,.64,0,7.34,7.34,0,0,0,5.32-4.15,48.39,48.39,0,0,0,1.88-4.62,49.49,49.49,0,0,0,1.71-4.68A7.36,7.36,0,0,0,631.34,458.94Z"
            transform="translate(4 2.7)" />
        <path class="cls-14"
            d="M631.17,469.34l-106-40c0,.05-.08.08-.1.14l1,.47-1.08-.36.52.21-.53-.17c-.78,2.45,2.56,4.76,7.37,7.75.83.52,1.61,1,2,1.27a10.62,10.62,0,0,1,2.73,3.53,19.37,19.37,0,0,0,2.28,3.39c2.75,3.13,8,5.17,8.2,5.26l71.69,27.6a15.22,15.22,0,0,0,3.72.65,4.31,4.31,0,0,0,.64,0,7.34,7.34,0,0,0,5.32-4.15,48.39,48.39,0,0,0,1.88-4.62Z"
            transform="translate(4 2.7)" />
        <path class="cls-14"
            d="M544.66,448.07a1.49,1.49,0,0,1-.55-.1,1.52,1.52,0,0,1-.87-2L550,428.57a1.52,1.52,0,0,1,2.84,1.09l-6.71,17.44A1.53,1.53,0,0,1,544.66,448.07Z"
            transform="translate(4 2.7)" />
        <path class="cls-14"
            d="M563.21,456.54a1.47,1.47,0,0,1-.54-.1,1.5,1.5,0,0,1-.87-2L569,435.71a1.52,1.52,0,0,1,2.84,1.09l-7.23,18.77A1.52,1.52,0,0,1,563.21,456.54Z"
            transform="translate(4 2.7)" />
        <path class="cls-14"
            d="M615.94,476.64a1.49,1.49,0,0,1-.55-.1,1.53,1.53,0,0,1-.87-2l7.22-18.77a1.52,1.52,0,0,1,2.84,1.1l-7.23,18.76A1.5,1.5,0,0,1,615.94,476.64Z"
            transform="translate(4 2.7)" />
        <path class="cls-14"
            d="M608.53,465.64a23.52,23.52,0,0,1-3.33-.26,76.17,76.17,0,0,1-27.43-10.55c-4.06-2.77-5.67-5.08-4.9-7.07s3.51-2.63,8.38-1.95a76.48,76.48,0,0,1,27.42,10.56c4.07,2.77,5.67,5.08,4.91,7.06C613,464.91,611.35,465.64,608.53,465.64Zm-32.77-16.77c.48,1.49,6,5.77,16.31,9.73s17.26,4.5,18.61,3.72c-.47-1.49-6-5.77-16.3-9.72h0C584.1,448.64,577.11,448.09,575.76,448.87Z"
            transform="translate(4 2.7)" />
        <path class="cls-14"
            d="M548.13,450.87a1.49,1.49,0,0,1-.55-.1,1.53,1.53,0,0,1-.87-2L553.93,430a1.52,1.52,0,0,1,2.84,1.1l-7.22,18.76A1.53,1.53,0,0,1,548.13,450.87Z"
            transform="translate(4 2.7)" />
        <path class="cls-11"
            d="M632.86,454.38a12.88,12.88,0,0,0-3.75-2.51L557.52,424.3c-.22-.08-5.46-2.08-9.59-1.6a20.5,20.5,0,0,0-4,1,10.56,10.56,0,0,1-4.39.8c-.43,0-1.33-.2-2.29-.37-5.58-1-9.61-1.54-10.67.81l1,.47-1.08-.36.52.21-.53-.17c-.78,2.45,2.56,4.76,7.37,7.75.83.52,1.61,1,2,1.27a10.68,10.68,0,0,1,2.73,3.54,19.55,19.55,0,0,0,2.28,3.39c2.75,3.12,8,5.16,8.2,5.25l71.69,27.6a15.22,15.22,0,0,0,3.72.65,4.31,4.31,0,0,0,.64,0,7.34,7.34,0,0,0,5.32-4.15,48.39,48.39,0,0,0,1.88-4.62A49.49,49.49,0,0,0,634,461,7.39,7.39,0,0,0,632.86,454.38Z"
            transform="translate(4 2.7)" />
        <path class="cls-26"
            d="M632.69,464.78l-106-40c0,.05-.08.08-.1.14l1,.47-1.08-.36.52.21-.53-.17c-.78,2.45,2.56,4.76,7.37,7.75.83.52,1.61,1,2,1.27a10.68,10.68,0,0,1,2.73,3.54,19.55,19.55,0,0,0,2.28,3.39c2.75,3.12,8,5.16,8.2,5.25l71.69,27.6a15.22,15.22,0,0,0,3.72.65,4.31,4.31,0,0,0,.64,0,7.34,7.34,0,0,0,5.32-4.15,48.39,48.39,0,0,0,1.88-4.62Z"
            transform="translate(4 2.7)" />
        <path class="cls-13"
            d="M546.18,443.51a1.49,1.49,0,0,1-.55-.1,1.52,1.52,0,0,1-.87-2L551.47,424a1.52,1.52,0,0,1,2.84,1.09l-6.71,17.44A1.52,1.52,0,0,1,546.18,443.51Z"
            transform="translate(4 2.7)" />
        <path class="cls-13"
            d="M564.73,452a1.47,1.47,0,0,1-.54-.1,1.5,1.5,0,0,1-.87-2l7.22-18.77a1.52,1.52,0,0,1,2.84,1.09L566.15,451A1.51,1.51,0,0,1,564.73,452Z"
            transform="translate(4 2.7)" />
        <path class="cls-13"
            d="M617.46,472.08a1.49,1.49,0,0,1-.55-.1,1.53,1.53,0,0,1-.87-2l7.22-18.77a1.52,1.52,0,0,1,2.84,1.1l-7.23,18.77A1.51,1.51,0,0,1,617.46,472.08Z"
            transform="translate(4 2.7)" />
        <path class="cls-13"
            d="M610.05,461.09a23.66,23.66,0,0,1-3.33-.27,76.17,76.17,0,0,1-27.43-10.55c-4.06-2.77-5.67-5.08-4.9-7.07s3.51-2.63,8.38-1.95a76.48,76.48,0,0,1,27.42,10.56c4.07,2.77,5.67,5.08,4.91,7.07C614.53,460.35,612.87,461.09,610.05,461.09Zm-32.77-16.78c.48,1.49,6,5.77,16.31,9.73s17.26,4.51,18.61,3.72c-.47-1.49-6-5.77-16.3-9.72h0C585.62,444.08,578.63,443.53,577.28,444.31Z"
            transform="translate(4 2.7)" />
        <path class="cls-13"
            d="M549.65,446.31a1.49,1.49,0,0,1-.55-.1,1.53,1.53,0,0,1-.87-2l7.22-18.77a1.52,1.52,0,0,1,2.84,1.1l-7.22,18.77A1.53,1.53,0,0,1,549.65,446.31Z"
            transform="translate(4 2.7)" />
        <polyline class="cls-6"
            points="418.18 196.53 455.74 108.93 457.47 86.68 443 103.47 405.32 191.34" />
        <path class="cls-6"
            d="M414.88,194.13l-1.4-.6L451,106.05l1.54-19.82-12.88,14.94L402,188.94l-1.4-.6,37.68-87.87a.67.67,0,0,1,.12-.2l14.47-16.79a.76.76,0,0,1,.87-.2.74.74,0,0,1,.46.75l-1.72,22.26a1.05,1.05,0,0,1-.06.24Z"
            transform="translate(4 2.7)" />
        <path class="cls-7"
            d="M453.47,84l-13.91,16.14.18.41a3.26,3.26,0,0,0,5.6,2.8,2.2,2.2,0,0,0,.67,2.5,3.59,3.59,0,0,0,2.61.73,10.88,10.88,0,0,0,2.68-.68l.48-.08Z"
            transform="translate(4 2.7)" />
        <path class="cls-7"
            d="M448.26,107.33a4.21,4.21,0,0,1-2.75-.92,3.13,3.13,0,0,1-1-1.61,4,4,0,0,1-5.55-4.16l-.09-.21a.75.75,0,0,1,.11-.81l13.91-16.14a.76.76,0,0,1,.87-.2.74.74,0,0,1,.46.75l-1.69,21.83a.75.75,0,0,1-.63.69l-.47.08a10.62,10.62,0,0,1-2.75.69Zm-2.92-4.76a.83.83,0,0,1,.43.13.76.76,0,0,1,.26,1,1.46,1.46,0,0,0,.47,1.61,2.92,2.92,0,0,0,2.06.54,9.72,9.72,0,0,0,2.49-.64h0l1.47-18.93-12.08,14a.72.72,0,0,1,0,.41,2.51,2.51,0,0,0,4.3,2.15A.77.77,0,0,1,445.34,102.57Z"
            transform="translate(4 2.7)" />
        <rect class="cls-11" x="387.67" y="142.22" width="80.83" height="3.04"
            transform="translate(131.7 483.61) rotate(-66.86)" />
        <path class="cls-6" d="M447,92.15A8.17,8.17,0,0,0,452,94.27l.67.08L453.47,84l-6.71,7.78Z"
            transform="translate(4 2.7)" />
        <path class="cls-6"
            d="M452.66,95.11h-.09L451.9,95a8.84,8.84,0,0,1-5.4-2.35.27.27,0,0,1-.07-.08l-.28-.38a.75.75,0,0,1,0-1l6.71-7.79a.76.76,0,0,1,.87-.2.74.74,0,0,1,.46.75l-.8,10.38a.77.77,0,0,1-.28.53A.74.74,0,0,1,452.66,95.11Zm-4.91-3.34A7.58,7.58,0,0,0,452,93.51l.56-7.28Z"
            transform="translate(4 2.7)" />
        <polygon class="cls-11"
            points="421.91 186.05 410.85 181.31 409.93 180.58 405.32 191.34 418.18 196.53 422.59 186.24 421.91 186.05" />
        <path class="cls-11"
            d="M414.18,195.35a1.65,1.65,0,0,1-.57-.11l-12.86-5.19a1.52,1.52,0,0,1-.84-.83,1.56,1.56,0,0,1,0-1.18l4.62-10.76a1.5,1.5,0,0,1,1-.88,1.53,1.53,0,0,1,1.32.29l.76.6,10.78,4.62.58.16a1.52,1.52,0,0,1,1,.81,1.54,1.54,0,0,1,0,1.26l-4.41,10.28A1.53,1.53,0,0,1,414.18,195.35Zm-10.85-7.54,10,4.05,3.19-7.44-9.95-4.26Z"
            transform="translate(4 2.7)" />
        <path class="cls-15"
            d="M483.7,16.21S467.59,15.15,436.17,34C410.83,49.26,400,67,400,67l8.65,8.91s15.7-19,31.76-29.83c24.73-16.62,42.81-19.52,43.73-19.29S483.7,16.21,483.7,16.21Z"
            transform="translate(4 2.7)" />
        <path class="cls-15"
            d="M408.67,76.64a.74.74,0,0,1-.54-.23l-8.65-8.91a.74.74,0,0,1-.11-.92c.11-.18,11.2-18,36.41-33.2,31.26-18.79,47.31-18,48-17.93a.77.77,0,0,1,.7.67c1.32,10.29.62,10.91.32,11.18a1.08,1.08,0,0,1-.8.2c-1.48-.17-19.43,3.27-43.11,19.18-15.79,10.6-31.45,29.5-31.6,29.68a.76.76,0,0,1-.56.28ZM401,66.88l7.64,7.87C411.55,71.31,425.71,55,440,45.42,462.92,30,480.1,26.38,483.69,26A66,66,0,0,0,483,17c-3.24.05-19,1.24-46.47,17.72C414,48.23,403,63.92,401,66.88ZM484.16,26h.18a.71.71,0,0,0-.25,0Z"
            transform="translate(4 2.7)" />
        <path class="cls-16"
            d="M404.81,71.9l3.86,4s15.7-19,31.76-29.83c24.73-16.62,42.81-19.52,43.73-19.29.4.1.36-1.89.19-4.16-8.23,1.94-26.18,6.78-40.39,15.08C424.43,49.07,410.08,65.39,404.81,71.9Z"
            transform="translate(4 2.7)" />
        <path class="cls-16"
            d="M408.67,76.64a.74.74,0,0,1-.54-.23l-3.87-4a.76.76,0,0,1-.05-1c5.3-6.53,19.73-23,39.36-34.4,14-8.18,31.47-13,40.61-15.16a.75.75,0,0,1,.62.13.73.73,0,0,1,.31.56c.29,3.9,0,4.43-.36,4.76a1,1,0,0,1-.78.19c-1.48-.17-19.43,3.27-43.11,19.18-15.79,10.6-31.45,29.5-31.6,29.68a.76.76,0,0,1-.56.28Zm-2.85-4.78,2.81,2.89C411.55,71.31,425.71,55,440,45.42c22.9-15.39,40.07-19,43.67-19.38a16.6,16.6,0,0,0,0-2.49c-9.27,2.22-25.89,7-39.32,14.78C425.42,49.37,411.38,65.08,405.82,71.86ZM484.16,26h.18a.71.71,0,0,0-.25,0Z"
            transform="translate(4 2.7)" />
        <polyline class="cls-15" points="412.67 78.58 409.11 82.48 400.38 74.45 404.02 69.67" />
        <path class="cls-15"
            d="M405.11,80.54a.74.74,0,0,1-.51-.2l-8.74-8a.78.78,0,0,1-.09-1l3.65-4.78a.76.76,0,0,1,1.06-.14.75.75,0,0,1,.14,1.06l-3.22,4.23,7.66,7,3.05-3.34a.76.76,0,0,1,1.07-.05.75.75,0,0,1,.05,1.07l-3.56,3.9a.74.74,0,0,1-.53.25Z"
            transform="translate(4 2.7)" />
        <path class="cls-7"
            d="M396.38,71.75s-4,5-4.82,6.43c-1.51,2.58-3.21,7.1.11,9.49,2.67,1.91,5.76.66,8.35-1.61,1.06-.93,5.09-6.28,5.09-6.28"
            transform="translate(4 2.7)" />
        <path class="cls-7"
            d="M394.53,89.37a5.59,5.59,0,0,1-3.3-1.08c-2.85-2.05-3-6-.33-10.5.86-1.47,4.72-6.31,4.89-6.51a.76.76,0,1,1,1.18,1s-4,5-4.75,6.33c-1.06,1.81-3.19,6.28-.1,8.49,2.56,1.84,5.44.17,7.4-1.56.82-.72,3.88-4.69,5-6.16a.76.76,0,0,1,1.22.91c-.42.55-4.11,5.44-5.2,6.39C398.45,88.45,396.41,89.37,394.53,89.37Z"
            transform="translate(4 2.7)" />
        <path class="cls-7"
            d="M483.55,27l21.58-9.42L483.7,16.21s-3,1.66-2.21,6C482.12,25.79,483.55,27,483.55,27Z"
            transform="translate(4 2.7)" />
        <path class="cls-7"
            d="M483.55,27.78a.77.77,0,0,1-.5-.18c-.07-.06-1.64-1.46-2.3-5.23-.86-4.84,2.44-6.74,2.58-6.82a.87.87,0,0,1,.42-.1l21.43,1.39a.76.76,0,0,1,.26,1.46l-21.59,9.42A.8.8,0,0,1,483.55,27.78ZM483.9,17c-.55.4-2.23,1.91-1.66,5.12a9.37,9.37,0,0,0,1.52,4L502,18.16Z"
            transform="translate(4 2.7)" />
        <polygon class="cls-8"
            points="413.69 78.58 409.72 83.04 399.48 73.63 403.69 68.81 413.69 78.58" />
        <path class="cls-8"
            d="M405.72,81.86a1.51,1.51,0,0,1-1-.4l-10.23-9.41a1.52,1.52,0,0,1-.12-2.12l4.2-4.82a1.51,1.51,0,0,1,1.08-.52,1.61,1.61,0,0,1,1.13.43l10,9.77a1.52,1.52,0,0,1,.08,2.1l-4,4.46a1.51,1.51,0,0,1-1.06.51Zm-8.12-11,8,7.37,2-2.23-7.82-7.63Z"
            transform="translate(4 2.7)" />
        <path class="cls-27" d="M500.22,19.74l4.91-2.14-5.39-.35A7.68,7.68,0,0,0,500.22,19.74Z"
            transform="translate(4 2.7)" />
        <path class="cls-27"
            d="M500.22,20.5a.79.79,0,0,1-.29-.06.74.74,0,0,1-.41-.42,8.25,8.25,0,0,1-.54-2.75.81.81,0,0,1,.23-.57.83.83,0,0,1,.58-.21l5.39.35a.76.76,0,0,1,.26,1.46l-4.91,2.14A.81.81,0,0,1,500.22,20.5Zm.35-2.43a4.53,4.53,0,0,0,.13.64l1.26-.55Z"
            transform="translate(4 2.7)" />
        <path class="cls-9"
            d="M488.82,257.48a39.68,39.68,0,0,1-38.66-48.66,39.69,39.69,0,1,0,72.07,30.38A39.62,39.62,0,0,1,488.82,257.48Z"
            transform="translate(4 2.7)" />
        <circle class="cls-8" cx="483.57" cy="230.24" r="39.7"
            transform="translate(-17.17 412.07) rotate(-45)" />
        <path class="cls-28"
            d="M503.67,209.31c0,1.15-.46,2.08-1,2.08s-1-.93-1-2.08.46-2.09,1-2.09S503.67,208.15,503.67,209.31Z"
            transform="translate(4 2.7)" />
        <path class="cls-28"
            d="M502.64,212.91c-1.47,0-2.55-1.51-2.55-3.6s1.08-3.61,2.55-3.61,2.55,1.51,2.55,3.61S504.12,212.91,502.64,212.91Z"
            transform="translate(4 2.7)" />
        <path class="cls-28" d="M477.78,212.91a5.48,5.48,0,0,0,11,0Z" transform="translate(4 2.7)" />
        <path class="cls-28"
            d="M483.26,219.75a6.93,6.93,0,0,1-7-6.84,1.52,1.52,0,0,1,1.52-1.52h11a1.52,1.52,0,0,1,1.52,1.52A6.92,6.92,0,0,1,483.26,219.75Zm-3.63-5.32a4,4,0,0,0,7.25,0Z"
            transform="translate(4 2.7)" />
        <path class="cls-28"
            d="M466,209.31c0,1.15-.46,2.08-1,2.08s-1-.93-1-2.08.46-2.09,1-2.09S466,208.15,466,209.31Z"
            transform="translate(4 2.7)" />
        <path class="cls-28"
            d="M465,212.91c-1.48,0-2.55-1.51-2.55-3.6s1.07-3.61,2.55-3.61,2.55,1.51,2.55,3.61S466.45,212.91,465,212.91Z"
            transform="translate(4 2.7)" />
        <path class="cls-28"
            d="M503.67,209.31c0,1.15-.46,2.08-1,2.08s-1-.93-1-2.08.46-2.09,1-2.09S503.67,208.15,503.67,209.31Z"
            transform="translate(4 2.7)" />
        <path class="cls-28"
            d="M502.64,212.91c-1.47,0-2.55-1.51-2.55-3.6s1.08-3.61,2.55-3.61,2.55,1.51,2.55,3.61S504.12,212.91,502.64,212.91Z"
            transform="translate(4 2.7)" />
        <path class="cls-23"
            d="M497.58,203.33a2.29,2.29,0,0,1-1.58-.64c-3.51-3.37-10.53-4.11-12.95-4.11a2.28,2.28,0,0,1,0-4.56c.43,0,10.57.06,16.11,5.38a2.28,2.28,0,0,1-1.58,3.93Z"
            transform="translate(4 2.7)" />
        <path class="cls-23"
            d="M476.5,199.53a2.14,2.14,0,0,1-.45-.05,1.88,1.88,0,0,1-.42-.14,2.09,2.09,0,0,1-.4-.19l-.35-.29c-.1-.11-.19-.23-.28-.35a1.5,1.5,0,0,1-.2-.4,1.88,1.88,0,0,1-.14-.42,2.12,2.12,0,0,1,0-.44,2,2,0,0,1,0-.44,2,2,0,0,1,.14-.43,1.44,1.44,0,0,1,.2-.39,2,2,0,0,1,.28-.35,2.34,2.34,0,0,1,3.23,0,2,2,0,0,1,.28.35,1.44,1.44,0,0,1,.2.39,2,2,0,0,1,.14.43,2,2,0,0,1,0,.44,2.12,2.12,0,0,1,0,.44,1.88,1.88,0,0,1-.14.42,1.5,1.5,0,0,1-.2.4c-.09.12-.18.24-.28.35A2.34,2.34,0,0,1,476.5,199.53Z"
            transform="translate(4 2.7)" />
        <polygon class="cls-9"
            points="634.88 208.43 744.93 195.37 744.93 188.05 656.02 188.63 634.88 208.43" />
        <rect class="cls-6" x="618.63" y="170.39" width="121.32" height="21.02"
            transform="translate(-13.43 90.14) rotate(-7.27)" />
        <path class="cls-6"
            d="M620.45,200.53a1.5,1.5,0,0,1-.93-.32,1.52,1.52,0,0,1-.58-1l-2.66-20.85a1.51,1.51,0,0,1,1.31-1.7l120.35-15.36a1.5,1.5,0,0,1,1.7,1.31l2.66,20.86a1.52,1.52,0,0,1-1.31,1.7L620.64,200.52Zm-1-21.06,2.27,17.84,117.34-15-2.28-17.83Z"
            transform="translate(4 2.7)" />
        <path class="cls-11"
            d="M730.39,169.64a1.51,1.51,0,0,1-1.51-1.32l-.54-4.27a1.52,1.52,0,0,1,3-.39l.55,4.27a1.52,1.52,0,0,1-1.32,1.7Z"
            transform="translate(4 2.7)" />
        <path class="cls-11"
            d="M727.48,186.87a1.53,1.53,0,0,1-1.51-1.33l-1.12-8.79a1.52,1.52,0,0,1,3-.39l1.12,8.8a1.53,1.53,0,0,1-1.32,1.7Z"
            transform="translate(4 2.7)" />
        <path class="cls-11"
            d="M628.51,182.65a1.52,1.52,0,0,1-1.51-1.33l-.55-4.27a1.52,1.52,0,0,1,3-.39l.55,4.27a1.52,1.52,0,0,1-1.32,1.7Z"
            transform="translate(4 2.7)" />
        <path class="cls-11"
            d="M637.77,181.46a1.52,1.52,0,0,1-1.51-1.32l-.54-4.27a1.52,1.52,0,0,1,3-.39l.55,4.27a1.52,1.52,0,0,1-1.32,1.7Z"
            transform="translate(4 2.7)" />
        <path class="cls-11"
            d="M647,180.28a1.53,1.53,0,0,1-1.51-1.33l-.54-4.27a1.52,1.52,0,1,1,3-.38l.55,4.27a1.53,1.53,0,0,1-1.32,1.7Z"
            transform="translate(4 2.7)" />
        <path class="cls-11"
            d="M656.29,179.1a1.53,1.53,0,0,1-1.51-1.33l-.54-4.27a1.52,1.52,0,1,1,3-.38l.54,4.27a1.52,1.52,0,0,1-1.31,1.7Z"
            transform="translate(4 2.7)" />
        <path class="cls-11"
            d="M665.55,177.92a1.52,1.52,0,0,1-1.5-1.33l-.55-4.27a1.52,1.52,0,1,1,3-.38l.54,4.27a1.52,1.52,0,0,1-1.31,1.7Z"
            transform="translate(4 2.7)" />
        <path class="cls-11"
            d="M674.82,176.74a1.52,1.52,0,0,1-1.51-1.33l-.55-4.27a1.52,1.52,0,0,1,3-.39l.55,4.27a1.52,1.52,0,0,1-1.32,1.7Z"
            transform="translate(4 2.7)" />
        <path class="cls-11"
            d="M684.08,175.55a1.52,1.52,0,0,1-1.51-1.32L682,170a1.52,1.52,0,1,1,3-.39l.55,4.27a1.52,1.52,0,0,1-1.32,1.7Z"
            transform="translate(4 2.7)" />
        <path class="cls-11"
            d="M693.34,174.37a1.53,1.53,0,0,1-1.51-1.33l-.54-4.27a1.52,1.52,0,1,1,3-.38l.55,4.27a1.53,1.53,0,0,1-1.32,1.7Z"
            transform="translate(4 2.7)" />
        <path class="cls-11"
            d="M702.6,173.19a1.51,1.51,0,0,1-1.5-1.33l-.55-4.27a1.52,1.52,0,0,1,3-.38l.54,4.27a1.52,1.52,0,0,1-1.31,1.7Z"
            transform="translate(4 2.7)" />
        <path class="cls-11"
            d="M711.86,172a1.52,1.52,0,0,1-1.5-1.33l-.55-4.27a1.52,1.52,0,0,1,3-.38l.54,4.27a1.52,1.52,0,0,1-1.31,1.7Z"
            transform="translate(4 2.7)" />
        <path class="cls-11"
            d="M721.13,170.83a1.52,1.52,0,0,1-1.51-1.33l-.55-4.27a1.52,1.52,0,0,1,3-.39l.55,4.27a1.52,1.52,0,0,1-1.32,1.7Z"
            transform="translate(4 2.7)" />
        <path class="cls-11"
            d="M690.74,191.56a1.51,1.51,0,0,1-1.5-1.33l-1.13-8.79a1.52,1.52,0,0,1,3-.39l1.12,8.79a1.51,1.51,0,0,1-1.31,1.7Z"
            transform="translate(4 2.7)" />
        <path class="cls-11"
            d="M672.37,193.9a1.51,1.51,0,0,1-1.5-1.33l-1.13-8.79a1.53,1.53,0,0,1,1.32-1.7,1.52,1.52,0,0,1,1.7,1.32l1.12,8.79a1.52,1.52,0,0,1-1.31,1.7Z"
            transform="translate(4 2.7)" />
        <path class="cls-11"
            d="M709.11,189.21a1.53,1.53,0,0,1-1.51-1.32l-1.12-8.8a1.52,1.52,0,0,1,3-.38l1.12,8.79a1.52,1.52,0,0,1-1.31,1.7Z"
            transform="translate(4 2.7)" />
        <path class="cls-11"
            d="M654,196.25a1.53,1.53,0,0,1-1.5-1.33l-1.12-8.8a1.52,1.52,0,1,1,3-.38l1.12,8.79a1.51,1.51,0,0,1-1.31,1.7Z"
            transform="translate(4 2.7)" />
        <path class="cls-11"
            d="M635.64,198.59a1.52,1.52,0,0,1-1.51-1.33L633,188.47a1.52,1.52,0,1,1,3-.39l1.12,8.8a1.52,1.52,0,0,1-1.31,1.7Z"
            transform="translate(4 2.7)" />
        <path class="cls-24"
            d="M506.61,385.9c0,1.49-6.1,2.69-13.63,2.69s-13.62-1.2-13.62-2.69,6.1-2.68,13.62-2.68S506.61,384.42,506.61,385.9Z"
            transform="translate(4 2.7)" />
        <path class="cls-24"
            d="M493,390.11c-4.55,0-15.14-.41-15.14-4.21s10.59-4.2,15.14-4.2,15.15.41,15.15,4.2S497.53,390.11,493,390.11Zm-11-4.21a52.67,52.67,0,0,0,22.08,0,53.12,53.12,0,0,0-22.08,0Zm23.34.56h0Z"
            transform="translate(4 2.7)" />
        <path class="cls-15"
            d="M495.31,297.93c.1,3.86,1.26,7.6,2.41,11.28a16.33,16.33,0,0,0-5.18,25.39c-3,2.48-6.2,5.33-6.66,9.19-.51,4.23,2.54,8.08,5.91,10.71s7.29,4.68,9.84,8.1c3-4.57,7.56-7.75,11.63-11.38s7.85-8.19,8.21-13.62a12.9,12.9,0,0,0-7.63-12.41c1.73-3.48,4.2-6.56,6-10,4-7.57,1.83-18.63-4.35-24.67-3.17-3.11-7.58-6.57-12.24-5.45C497.59,286.46,495.18,292.58,495.31,297.93Z"
            transform="translate(4 2.7)" />
        <path class="cls-15"
            d="M501.63,363.36a.77.77,0,0,1-.61-.3c-1.72-2.32-4.1-4-6.61-5.72-1-.72-2.09-1.46-3.09-2.24-2.58-2-6.82-6.18-6.2-11.4.45-3.8,3.31-6.64,6.35-9.2a17.07,17.07,0,0,1,5.34-25.67A40,40,0,0,1,494.56,298h0c-.15-5.71,2.44-12.13,8.55-13.61,5.17-1.24,9.87,2.63,12.95,5.65,6.58,6.43,8.59,17.9,4.49,25.57-.87,1.62-1.89,3.18-2.87,4.69s-2,3-2.81,4.59a13.71,13.71,0,0,1,7.36,12.81c-.31,4.72-3.08,9.34-8.46,14.14-1,.89-2,1.74-3,2.6-3.08,2.59-6.27,5.26-8.45,8.63a.8.8,0,0,1-.61.34Zm3.49-77.73a7.27,7.27,0,0,0-1.65.19c-5.29,1.28-7.52,7-7.4,12.09h0c.1,3.78,1.26,7.49,2.38,11.08a.75.75,0,0,1-.39.9,15.58,15.58,0,0,0-4.95,24.22.75.75,0,0,1,.18.56.72.72,0,0,1-.27.52c-3,2.48-6,5.2-6.39,8.69-.54,4.48,3.29,8.2,5.62,10,1,.76,2,1.49,3,2.19a32.21,32.21,0,0,1,6.3,5.24,46.05,46.05,0,0,1,8.17-8.1c1-.85,2-1.7,3-2.57,5.08-4.52,7.68-8.81,8-13.11a12.14,12.14,0,0,0-7.18-11.66.79.79,0,0,1-.42-.44.74.74,0,0,1,0-.6,54.49,54.49,0,0,1,3.25-5.43c1-1.48,2-3,2.8-4.58,3.8-7.11,1.91-17.78-4.21-23.77C512.53,288.65,509,285.63,505.12,285.63Z"
            transform="translate(4 2.7)" />
        <path class="cls-27"
            d="M501.79,387.42a1.52,1.52,0,0,1-1.52-1.52V329a1.52,1.52,0,1,1,3,0V385.9A1.52,1.52,0,0,1,501.79,387.42Z"
            transform="translate(4 2.7)" />
        <path class="cls-29"
            d="M514.41,317.46a2.31,2.31,0,0,1-.52-.06,2.28,2.28,0,0,1-1.7-2.74,26.94,26.94,0,0,0,.36-12.24,2.28,2.28,0,1,1,4.44-1,31.38,31.38,0,0,1-.36,14.3A2.27,2.27,0,0,1,514.41,317.46Z"
            transform="translate(4 2.7)" />
        <path class="cls-29"
            d="M511.76,297.2a2.31,2.31,0,0,1-1.89-1,13.19,13.19,0,0,0-3-3.22,2.28,2.28,0,0,1,2.5-3.81,16.94,16.94,0,0,1,4.26,4.45,2.27,2.27,0,0,1-.59,3.17A2.25,2.25,0,0,1,511.76,297.2Z"
            transform="translate(4 2.7)" />
        <path class="cls-24"
            d="M455.91,425c0,1.48-6.1,2.69-13.62,2.69s-13.63-1.21-13.63-2.69,6.1-2.68,13.63-2.68S455.91,423.47,455.91,425Z"
            transform="translate(4 2.7)" />
        <path class="cls-24"
            d="M442.29,429.15c-4.56,0-15.15-.41-15.15-4.2s10.59-4.2,15.15-4.2,15.14.41,15.14,4.2S446.84,429.15,442.29,429.15Zm-11-4.2a52.67,52.67,0,0,0,22.08,0,53.12,53.12,0,0,0-22.08,0Zm23.33.56h0Z"
            transform="translate(4 2.7)" />
        <path class="cls-15"
            d="M470.57,384c-.29-4.42-3.7-8.69-8.1-9.14,3.17-4.44,6.49-10,4.35-15-1.23-2.91-4-4.8-6.67-6.53,4-4.53,3.91-12.39-.72-16.32s-13-2.27-15.24,3.36c-1.64,4.11-.07,8.85-1.11,13.16-4,.16-7.25,4.12-7.41,8.15s2.19,7.85,5.36,10.35a17.55,17.55,0,0,0-6.31,11.75c-.8,9.75,9.12,17.24,18.31,17.53C461.28,401.5,471.1,392.29,470.57,384Z"
            transform="translate(4 2.7)" />
        <path class="cls-15"
            d="M453.35,402H453a21.64,21.64,0,0,1-15-7A15,15,0,0,1,434,383.65a18.07,18.07,0,0,1,5.9-11.66,13.49,13.49,0,0,1-4.95-10.4c.17-4.43,3.56-8.33,7.54-8.83a24.33,24.33,0,0,0,.22-5.23,18.21,18.21,0,0,1,.82-7.5,9.69,9.69,0,0,1,6.88-5.64,10.78,10.78,0,0,1,9.55,2,11.33,11.33,0,0,1,3.85,8,12.93,12.93,0,0,1-2.49,8.71c2.34,1.55,5,3.48,6.24,6.4,2.09,4.92-.58,10.17-3.75,14.78a10.64,10.64,0,0,1,7.55,9.62h0c.26,3.93-1.64,8.28-5.18,12C462.44,399.67,457.57,402,453.35,402Zm-.14-66.44a10.43,10.43,0,0,0-2.47.3,8.16,8.16,0,0,0-5.84,4.72c-.85,2.12-.79,4.44-.72,6.9a23.12,23.12,0,0,1-.37,6.15.76.76,0,0,1-.7.59c-3.83.15-6.55,4-6.68,7.42s1.76,7.11,5.07,9.73a.76.76,0,0,1,0,1.18,16.67,16.67,0,0,0-6,11.22A13.61,13.61,0,0,0,439.15,394a20.08,20.08,0,0,0,13.9,6.5c3.82.12,8.48-2.06,12-5.7,3.25-3.36,5-7.29,4.76-10.8h0c-.27-4.25-3.6-8-7.42-8.42a.76.76,0,0,1-.61-.45.77.77,0,0,1,.07-.75c3.2-4.49,6.22-9.7,4.27-14.27-1.18-2.8-4.07-4.68-6.38-6.2a.74.74,0,0,1-.34-.53.79.79,0,0,1,.18-.61,11.27,11.27,0,0,0,2.68-8.26,9.9,9.9,0,0,0-3.32-7A8.86,8.86,0,0,0,453.21,335.57Z"
            transform="translate(4 2.7)" />
        <path class="cls-27"
            d="M452.63,427.79a1.52,1.52,0,0,1-1.52-1.52V369.35a1.52,1.52,0,1,1,3,0v56.92A1.52,1.52,0,0,1,452.63,427.79Z"
            transform="translate(4 2.7)" />
        <path class="cls-29"
            d="M447.55,351.74h-.09a2.28,2.28,0,0,1-2.19-2.36c.16-4.36,1.44-7.6,3.8-9.63a8.67,8.67,0,0,1,6.27-2.1,2.28,2.28,0,0,1-.46,4.54,4.16,4.16,0,0,0-2.88,1.05c-1.31,1.17-2.07,3.35-2.18,6.31A2.27,2.27,0,0,1,447.55,351.74Z"
            transform="translate(4 2.7)" />
        <path class="cls-29"
            d="M444.88,396.08a2.23,2.23,0,0,1-1-.24c-5-2.44-7-11.15-7.23-12.13a2.28,2.28,0,1,1,4.46-1c.54,2.44,2.41,7.86,4.77,9a2.28,2.28,0,0,1-1,4.33Z"
            transform="translate(4 2.7)" />
        <path class="cls-20"
            d="M643.93,327.83a2.32,2.32,0,0,1-1.18-.33l-6.8-4.11a2.28,2.28,0,0,1,2.36-3.9l6.8,4.1a2.29,2.29,0,0,1-1.18,4.24Z"
            transform="translate(4 2.7)" />
    </g>
</svg>